<?xml version="1.0" encoding="iso-8859-1"?>
<!-- Generator: Adobe Illustrator 19.0.0, SVG Export Plug-In . SVG Version: 6.00 Build 0)  -->
<svg version="1.1" id="Capa_1" xmlns="http://www.w3.org/2000/svg" xmlns:xlink="http://www.w3.org/1999/xlink" x="0px" y="0px"
	 viewBox="0 0 512 512" style="enable-background:new 0 0 512 512;" xml:space="preserve">
<g>
	<g>
		<path d="M256,0C114.844,0,0,114.844,0,256s114.844,256,256,256s256-114.844,256-256S397.156,0,256,0z M332.802,103.771
			L256,180.583l-76.802-76.813C226.906,79.583,285.094,79.583,332.802,103.771z M85.333,256c0-26.656,6.344-52.948,18.438-76.802
			L180.583,256l-76.813,76.802C91.677,308.948,85.333,282.656,85.333,256z M179.198,408.229L256,331.417l76.802,76.813
			C285.094,432.417,226.906,432.417,179.198,408.229z M408.229,332.802L331.417,256l76.813-76.802
			c12.094,23.854,18.438,50.146,18.438,76.802S420.323,308.948,408.229,332.802z"/>
	</g>
</g>
<g>
</g>
<g>
</g>
<g>
</g>
<g>
</g>
<g>
</g>
<g>
</g>
<g>
</g>
<g>
</g>
<g>
</g>
<g>
</g>
<g>
</g>
<g>
</g>
<g>
</g>
<g>
</g>
<g>
</g>
</svg>
